<svg id="visual" viewBox="0 0 960 540" width="960" height="540" xmlns="http://www.w3.org/2000/svg" xmlns:xlink="http://www.w3.org/1999/xlink" version="1.1"><rect x="0" y="0" width="960" height="540" fill="#001220"></rect><path d="M0 215L22.8 210.5C45.7 206 91.3 197 137 187.5C182.7 178 228.3 168 274 183.2C319.7 198.3 365.3 238.7 411.2 246.2C457 253.7 503 228.3 548.8 205C594.7 181.7 640.3 160.3 686 168.8C731.7 177.3 777.3 215.7 823 237.2C868.7 258.7 914.3 263.3 937.2 265.7L960 268L960 541L937.2 541C914.3 541 868.7 541 823 541C777.3 541 731.7 541 686 541C640.3 541 594.7 541 548.8 541C503 541 457 541 411.2 541C365.3 541 319.7 541 274 541C228.3 541 182.7 541 137 541C91.3 541 45.7 541 22.8 541L0 541Z" fill="#fa7268"></path><path d="M0 211L22.8 224.8C45.7 238.7 91.3 266.3 137 275.8C182.7 285.3 228.3 276.7 274 265.7C319.7 254.7 365.3 241.3 411.2 229.5C457 217.7 503 207.3 548.8 209.3C594.7 211.3 640.3 225.7 686 232C731.7 238.3 777.3 236.7 823 242.3C868.7 248 914.3 261 937.2 267.5L960 274L960 541L937.2 541C914.3 541 868.7 541 823 541C777.3 541 731.7 541 686 541C640.3 541 594.7 541 548.8 541C503 541 457 541 411.2 541C365.3 541 319.7 541 274 541C228.3 541 182.7 541 137 541C91.3 541 45.7 541 22.8 541L0 541Z" fill="#f36567"></path><path d="M0 316L22.8 316.8C45.7 317.7 91.3 319.3 137 324.2C182.7 329 228.3 337 274 326.2C319.7 315.3 365.3 285.7 411.2 268.3C457 251 503 246 548.8 260.3C594.7 274.7 640.3 308.3 686 318.2C731.7 328 777.3 314 823 312.8C868.7 311.7 914.3 323.3 937.2 329.2L960 335L960 541L937.2 541C914.3 541 868.7 541 823 541C777.3 541 731.7 541 686 541C640.3 541 594.7 541 548.8 541C503 541 457 541 411.2 541C365.3 541 319.7 541 274 541C228.3 541 182.7 541 137 541C91.3 541 45.7 541 22.8 541L0 541Z" fill="#eb5967"></path><path d="M0 358L22.8 361.2C45.7 364.3 91.3 370.7 137 360.7C182.7 350.7 228.3 324.3 274 324.3C319.7 324.3 365.3 350.7 411.2 361.7C457 372.7 503 368.3 548.8 355.2C594.7 342 640.3 320 686 318C731.7 316 777.3 334 823 336.2C868.7 338.3 914.3 324.7 937.2 317.8L960 311L960 541L937.2 541C914.3 541 868.7 541 823 541C777.3 541 731.7 541 686 541C640.3 541 594.7 541 548.8 541C503 541 457 541 411.2 541C365.3 541 319.7 541 274 541C228.3 541 182.7 541 137 541C91.3 541 45.7 541 22.8 541L0 541Z" fill="#e34c67"></path><path d="M0 433L22.8 430.7C45.7 428.3 91.3 423.7 137 415.2C182.7 406.7 228.3 394.3 274 385.3C319.7 376.3 365.3 370.7 411.2 375.8C457 381 503 397 548.8 407C594.7 417 640.3 421 686 418.5C731.7 416 777.3 407 823 405.7C868.7 404.3 914.3 410.7 937.2 413.8L960 417L960 541L937.2 541C914.3 541 868.7 541 823 541C777.3 541 731.7 541 686 541C640.3 541 594.7 541 548.8 541C503 541 457 541 411.2 541C365.3 541 319.7 541 274 541C228.3 541 182.7 541 137 541C91.3 541 45.7 541 22.8 541L0 541Z" fill="#da3f67"></path><path d="M0 459L22.8 452.2C45.7 445.3 91.3 431.7 137 424.5C182.7 417.3 228.3 416.7 274 417.8C319.7 419 365.3 422 411.2 421.7C457 421.3 503 417.7 548.8 419C594.7 420.3 640.3 426.7 686 429.5C731.7 432.3 777.3 431.7 823 429.7C868.7 427.7 914.3 424.3 937.2 422.7L960 421L960 541L937.2 541C914.3 541 868.7 541 823 541C777.3 541 731.7 541 686 541C640.3 541 594.7 541 548.8 541C503 541 457 541 411.2 541C365.3 541 319.7 541 274 541C228.3 541 182.7 541 137 541C91.3 541 45.7 541 22.8 541L0 541Z" fill="#d03267"></path><path d="M0 455L22.8 461.8C45.7 468.7 91.3 482.3 137 482C182.7 481.7 228.3 467.3 274 464.7C319.7 462 365.3 471 411.2 473.3C457 475.7 503 471.3 548.8 472C594.7 472.7 640.3 478.3 686 476C731.7 473.7 777.3 463.3 823 458.8C868.7 454.3 914.3 455.7 937.2 456.3L960 457L960 541L937.2 541C914.3 541 868.7 541 823 541C777.3 541 731.7 541 686 541C640.3 541 594.7 541 548.8 541C503 541 457 541 411.2 541C365.3 541 319.7 541 274 541C228.3 541 182.7 541 137 541C91.3 541 45.7 541 22.8 541L0 541Z" fill="#c62368"></path></svg>